/* XPM */
static char * bxLogo_30_xpm[] = {
"30 27 727 2",
"  	c #F3FFFB",
". 	c #F6FFFF",
"+ 	c #FDFEFF",
"@ 	c #FFFCF9",
"# 	c #FFFEF1",
"$ 	c #FFFFF7",
"% 	c #FFFEF9",
"& 	c #FFFCF4",
"* 	c #FFFAEE",
"= 	c #F9FFF9",
"- 	c #FFFCFF",
"; 	c #F8FCFB",
"> 	c #F7FFF2",
", 	c #FFFFE7",
"' 	c #E9FFD7",
") 	c #CAF5C3",
"! 	c #B8EFB3",
"~ 	c #94EA92",
"{ 	c #5BE766",
"] 	c #40D63F",
"^ 	c #36DC33",
"/ 	c #49E243",
"( 	c #7AE770",
"_ 	c #8BE795",
": 	c #A6EABD",
"< 	c #E5FFED",
"[ 	c #FFFFF4",
"} 	c #FFFDF3",
"| 	c #F8FFF5",
"1 	c #EDFFF7",
"2 	c #FFF9FC",
"3 	c #F4FFF9",
"4 	c #F3FFFD",
"5 	c #FFFBFF",
"6 	c #FFF7FE",
"7 	c #FBFFFC",
"8 	c #F9FFFD",
"9 	c #FFF9FF",
"0 	c #FFF5FF",
"a 	c #F9FFF0",
"b 	c #ECFFF7",
"c 	c #E6FFFA",
"d 	c #A6FFB5",
"e 	c #56BA57",
"f 	c #2CAC37",
"g 	c #1CAD29",
"h 	c #1AAA21",
"i 	c #1AA81D",
"j 	c #14B319",
"k 	c #0BBB01",
"l 	c #02B701",
"m 	c #03B800",
"n 	c #1ABC0E",
"o 	c #1DB41D",
"p 	c #25962F",
"q 	c #D4FCD3",
"r 	c #FFF3FF",
"s 	c #FEFEFE",
"t 	c #FFF6FF",
"u 	c #F8FFF8",
"v 	c #F3FFF6",
"w 	c #FEFEFC",
"x 	c #FFFAFF",
"y 	c #F8FCFF",
"z 	c #F4F9FE",
"A 	c #FEFDFF",
"B 	c #F8FFF7",
"C 	c #C5FFC6",
"D 	c #8CE392",
"E 	c #2EB337",
"F 	c #0BA51A",
"G 	c #0DA422",
"H 	c #13A72B",
"I 	c #1EB22E",
"J 	c #34BE3F",
"K 	c #52C255",
"L 	c #61C260",
"M 	c #5BCA56",
"N 	c #4DC449",
"O 	c #47C346",
"P 	c #1AA41B",
"Q 	c #15AE19",
"R 	c #1C9621",
"S 	c #DAFFD5",
"T 	c #FFFBFA",
"U 	c #FFF8FF",
"V 	c #FEFFFF",
"W 	c #FAFFF2",
"X 	c #F9FFEF",
"Y 	c #FCFFFD",
"Z 	c #FDFDFF",
"` 	c #F2FCFB",
" .	c #E4FFE6",
"..	c #78D27A",
"+.	c #20A530",
"@.	c #12A90A",
"#.	c #10A301",
"$.	c #38BC39",
"%.	c #88F49C",
"&.	c #C2FCD2",
"*.	c #D2FDD5",
"=.	c #DDFED9",
"-.	c #E5FFDF",
";.	c #F5FFED",
">.	c #F3FFF7",
",.	c #E7FFF1",
"'.	c #DAFEE3",
").	c #CFFDD5",
"!.	c #A2F6AB",
"~.	c #55B05C",
"{.	c #D9FFD6",
"].	c #F9FFF1",
"^.	c #FFFCFE",
"/.	c #FCFFFF",
"(.	c #F7FFFA",
"_.	c #F7FFF4",
":.	c #FEFFF6",
"<.	c #EEF7EB",
"[.	c #B3F4B1",
"}.	c #2FB62F",
"|.	c #0AA10E",
"1.	c #31A43B",
"2.	c #86CA79",
"3.	c #D9F8C4",
"4.	c #E4FFED",
"5.	c #F5FCEF",
"6.	c #FFF5EE",
"7.	c #FFF9EE",
"8.	c #FBFFE9",
"9.	c #FDFFEE",
"0.	c #E5FFF5",
"a.	c #78CE8D",
"b.	c #5ACF66",
"c.	c #7FD581",
"d.	c #C1F6BA",
"e.	c #EFFFE5",
"f.	c #F7FFF6",
"g.	c #FBFFFF",
"h.	c #F8FFFF",
"i.	c #FFFCFA",
"j.	c #FEFFFC",
"k.	c #FBF7FE",
"l.	c #F1FDF7",
"m.	c #A0F799",
"n.	c #14A80B",
"o.	c #25B41E",
"p.	c #95F092",
"q.	c #EDFFE7",
"r.	c #F1FFEB",
"s.	c #F9FBF0",
"t.	c #EAFFE8",
"u.	c #67CE6F",
"v.	c #41A435",
"w.	c #B9CEA5",
"x.	c #FFF2F7",
"y.	c #FDFDFA",
"z.	c #EEFFFF",
"A.	c #63BB74",
"B.	c #12A811",
"C.	c #10B30E",
"D.	c #14A609",
"E.	c #79D867",
"F.	c #E6FFDD",
"G.	c #F2FEFC",
"H.	c #F9FCFF",
"I.	c #FBFEFE",
"J.	c #FDFDF0",
"K.	c #EAFCE8",
"L.	c #FBF8F9",
"M.	c #FDFCFF",
"N.	c #A7EBB2",
"O.	c #239E1E",
"P.	c #60C653",
"Q.	c #CCFCC5",
"R.	c #F4FEF2",
"S.	c #FDF9FA",
"T.	c #FCFBFF",
"U.	c #F7FDFE",
"V.	c #CAFBD7",
"W.	c #17AC28",
"X.	c #0FA510",
"Y.	c #B9EFB6",
"Z.	c #FFFDFF",
"`.	c #FBFFF6",
" +	c #FAFFFF",
".+	c #CFECD3",
"++	c #7DCF78",
"@+	c #34B533",
"#+	c #07A505",
"$+	c #0AA309",
"%+	c #4CBD49",
"&+	c #C0F4B9",
"*+	c #FDFEEE",
"=+	c #FDF9F6",
"-+	c #F2FEF5",
";+	c #E9FFF3",
">+	c #FDFBFE",
",+	c #FDF3F9",
"'+	c #DAFCD8",
")+	c #258D23",
"!+	c #77CB6B",
"~+	c #EEFFE5",
"{+	c #F0F1F0",
"]+	c #FEFCFF",
"^+	c #F6F8F9",
"/+	c #F1FFF8",
"(+	c #EAFFF6",
"_+	c #C1F4D2",
":+	c #60C773",
"<+	c #B4FFC3",
"[+	c #D3FFDF",
"}+	c #F1FFF7",
"|+	c #FDFFFA",
"1+	c #FAFFEF",
"2+	c #FCFEF8",
"3+	c #E9FEE9",
"4+	c #B2FEB2",
"5+	c #39B640",
"6+	c #109A1A",
"7+	c #56BB4F",
"8+	c #EEFFC9",
"9+	c #FFFCEA",
"0+	c #F3FDFC",
"a+	c #F2F5FA",
"b+	c #FAFEFB",
"c+	c #E2FFE1",
"d+	c #48A742",
"e+	c #60C152",
"f+	c #EEFFDA",
"g+	c #F6FFF3",
"h+	c #AECBBD",
"i+	c #BFF8D3",
"j+	c #E2FFE3",
"k+	c #E6FFE2",
"l+	c #B7F0BB",
"m+	c #609367",
"n+	c #EDFAF0",
"o+	c #EFF4F8",
"p+	c #F4FFFE",
"q+	c #FFFFFC",
"r+	c #FFFCFD",
"s+	c #FFF9F6",
"t+	c #F2FEF1",
"u+	c #E7FEF1",
"v+	c #F9FBF7",
"w+	c #FFF9FB",
"x+	c #EFFFEA",
"y+	c #96DFA1",
"z+	c #168827",
"A+	c #88CE80",
"B+	c #FDFFE9",
"C+	c #FEF8FE",
"D+	c #F7FFE6",
"E+	c #A2DB90",
"F+	c #349234",
"G+	c #C2FFD1",
"H+	c #D0FED3",
"I+	c #50AA50",
"J+	c #45AA48",
"K+	c #1B8E24",
"L+	c #A9E8A4",
"M+	c #81CB7D",
"N+	c #90DF8D",
"O+	c #6CC062",
"P+	c #FDFFEC",
"Q+	c #F2FFF3",
"R+	c #F0FFF0",
"S+	c #FEFDFD",
"T+	c #FEFEFF",
"U+	c #E3F9F6",
"V+	c #ECF1E8",
"W+	c #FFFDE5",
"X+	c #ECFFDC",
"Y+	c #8CEE9A",
"Z+	c #179833",
"`+	c #BEFEC7",
" @	c #FAFDF0",
".@	c #FDFAFB",
"+@	c #E8FFD9",
"@@	c #419935",
"#@	c #B2F6B6",
"$@	c #E8FEFC",
"%@	c #C6FAD3",
"&@	c #3CA840",
"*@	c #BBFFBB",
"=@	c #35B331",
"-@	c #D1FFCD",
";@	c #2E9130",
">@	c #29A52B",
",@	c #A2FE9C",
"'@	c #FAFFEC",
")@	c #FEF8FA",
"!@	c #F8FDFC",
"~@	c #F1F9F9",
"{@	c #FFF7FF",
"]@	c #FEFFFB",
"^@	c #FFFAFE",
"/@	c #8FB28F",
"(@	c #90CF93",
"_@	c #DCFFD1",
":@	c #BDFCB5",
"<@	c #91EF98",
"[@	c #55BC63",
"}@	c #5CB66A",
"|@	c #FBFFEE",
"1@	c #FDFCF9",
"2@	c #AFFBAC",
"3@	c #4CAC4B",
"4@	c #EAFFEC",
"5@	c #FFFFFF",
"6@	c #E3FDE6",
"7@	c #4EA94D",
"8@	c #4CD14A",
"9@	c #1B9A1B",
"0@	c #98D297",
"a@	c #B5FFB4",
"b@	c #2D972D",
"c@	c #D7FFD4",
"d@	c #FCFDEE",
"e@	c #FFFAF4",
"f@	c #F4FBF7",
"g@	c #F3FBFF",
"h@	c #EBFAE7",
"i@	c #E0EFDB",
"j@	c #F8FAF5",
"k@	c #F8FFF1",
"l@	c #8DCF81",
"m@	c #79C47F",
"n@	c #83EB83",
"o@	c #279F23",
"p@	c #2E8F2F",
"q@	c #C0FECB",
"r@	c #299835",
"s@	c #E4FFDD",
"t@	c #53B659",
"u@	c #84D58D",
"v@	c #FEFFF2",
"w@	c #FEFFF5",
"x@	c #5BA354",
"y@	c #90FF92",
"z@	c #A4FFB0",
"A@	c #6BAA6B",
"B@	c #D9FFD5",
"C@	c #6DB66D",
"D@	c #DCFFDD",
"E@	c #FDFFF1",
"F@	c #FFFBFB",
"G@	c #F9FEFE",
"H@	c #E8FFFB",
"I@	c #EAFFFB",
"J@	c #AECEB0",
"K@	c #8DB08E",
"L@	c #ECFFEA",
"M@	c #77CB6F",
"N@	c #28921D",
"O@	c #84CD8E",
"P@	c #33B12F",
"Q@	c #3ECE36",
"R@	c #B1FEB0",
"S@	c #E3FFF3",
"T@	c #2AA738",
"U@	c #CBF2C8",
"V@	c #FDFFFD",
"W@	c #409B41",
"X@	c #BAFFC6",
"Y@	c #F1FBFB",
"Z@	c #FEFFED",
"`@	c #FFF6F8",
" #	c #76B473",
".#	c #61D16B",
"+#	c #4B9B52",
"@#	c #C7F9C4",
"##	c #C9FFD1",
"$#	c #4FA65D",
"%#	c #E5FFEB",
"&#	c #FBFEF4",
"*#	c #F6F9FF",
"=#	c #F1FFFE",
"-#	c #EFFFED",
";#	c #DEEDCE",
">#	c #9ED692",
",#	c #7EE67A",
"'#	c #40C33C",
")#	c #5EC654",
"!#	c #64C474",
"~#	c #23A21B",
"{#	c #64DC57",
"]#	c #419B45",
"^#	c #DFF8EB",
"/#	c #2DA73E",
"(#	c #BEF1BE",
"_#	c #F6FDEF",
":#	c #569549",
"<#	c #DDFFE3",
"[#	c #F0FFFF",
"}#	c #F8FFF3",
"|#	c #FEFEFD",
"1#	c #B2E7BD",
"2#	c #41874D",
"3#	c #E6F9DF",
"4#	c #ECFFE2",
"5#	c #EDFFE6",
"6#	c #BEE1C5",
"7#	c #E4FFF0",
"8#	c #C3EABE",
"9#	c #EEFFE0",
"0#	c #E9FFEB",
"a#	c #9CEAA6",
"b#	c #399442",
"c#	c #AFEAB1",
"d#	c #52994E",
"e#	c #4EC14D",
"f#	c #A5FFA3",
"g#	c #87D87D",
"h#	c #6CC67C",
"i#	c #5CB44D",
"j#	c #348826",
"k#	c #CFFFD6",
"l#	c #44B259",
"m#	c #CEF9CE",
"n#	c #EAFCE6",
"o#	c #4D873C",
"p#	c #EAFFE7",
"q#	c #F4FFFF",
"r#	c #EEFFFA",
"s#	c #F7FFFF",
"t#	c #E7FEF3",
"u#	c #F6FFFA",
"v#	c #FCFCF3",
"w#	c #F7FFF1",
"x#	c #F6FFF2",
"y#	c #F5FFF8",
"z#	c #E8FFEB",
"A#	c #6EB35F",
"B#	c #54A046",
"C#	c #79DE7B",
"D#	c #30A937",
"E#	c #8EED8F",
"F#	c #BDECBC",
"G#	c #499551",
"H#	c #6CCB73",
"I#	c #379F35",
"J#	c #519549",
"K#	c #91D39E",
"L#	c #E8FFDA",
"M#	c #F1FFE3",
"N#	c #EBFFEC",
"O#	c #359B44",
"P#	c #E0FFDE",
"Q#	c #E8FEEF",
"R#	c #43903A",
"S#	c #E2FFD4",
"T#	c #E5FFF6",
"U#	c #F1FDFF",
"V#	c #FFFFFE",
"W#	c #F0F0E6",
"X#	c #FDFFFB",
"Y#	c #E8FDED",
"Z#	c #E7FFE9",
"`#	c #D1F7D9",
" $	c #98D39A",
".$	c #318D26",
"+$	c #75D56A",
"@$	c #9DFF9F",
"#$	c #2EAE30",
"$$	c #1A8313",
"%$	c #B4E7A9",
"&$	c #488C4B",
"*$	c #D0FFD8",
"=$	c #B0E6B1",
"-$	c #EEFFF2",
";$	c #F3FEEF",
">$	c #FDFFF4",
",$	c #C5EFC4",
"'$	c #499752",
")$	c #E9FFFC",
"!$	c #41A845",
"~$	c #B7EAA7",
"{$	c #FFF5FC",
"]$	c #E6FFF2",
"^$	c #FAFDFF",
"/$	c #FBF6EF",
"($	c #FFFFEB",
"_$	c #E1FFEC",
":$	c #AADDB9",
"<$	c #CFFDD0",
"[$	c #5EAD67",
"}$	c #BCFFCD",
"|$	c #5DBC62",
"1$	c #8CDC80",
"2$	c #B0FDAA",
"3$	c #5FB85E",
"4$	c #3D8E39",
"5$	c #CFF6C6",
"6$	c #D3F0CA",
"7$	c #F4FFF2",
"8$	c #F6FFF7",
"9$	c #F7FFF9",
"0$	c #F4FEEF",
"a$	c #FCFBFD",
"b$	c #FFF6FD",
"c$	c #FDFFEB",
"d$	c #5BA95F",
"e$	c #D1FAD9",
"f$	c #F9FCF4",
"g$	c #F5FFFF",
"h$	c #78D779",
"i$	c #78BD68",
"j$	c #EEFFF8",
"k$	c #F5FEFD",
"l$	c #EDFDE3",
"m$	c #78B566",
"n$	c #7BD97E",
"o$	c #6DCC78",
"p$	c #DBFCD6",
"q$	c #7EB877",
"r$	c #C0FFBC",
"s$	c #8ACA82",
"t$	c #66B65F",
"u$	c #93E996",
"v$	c #68B56F",
"w$	c #DDFFDE",
"x$	c #F1FFEF",
"y$	c #E7FEF5",
"z$	c #F7FDFF",
"A$	c #FFFEFF",
"B$	c #F6FFF9",
"C$	c #FEFBFF",
"D$	c #F9FAF6",
"E$	c #D1F6C4",
"F$	c #57AF5B",
"G$	c #EBFFFD",
"H$	c #FFFDFC",
"I$	c #FEF7FF",
"J$	c #E3FFD4",
"K$	c #49A43B",
"L$	c #BDFBC2",
"M$	c #F5FDFF",
"N$	c #E8FFF3",
"O$	c #65B06F",
"P$	c #7BEB75",
"Q$	c #2CAA1A",
"R$	c #6CDB6B",
"S$	c #B9FFB1",
"T$	c #58B753",
"U$	c #A1FEA5",
"V$	c #B8E2BD",
"W$	c #C5EAC6",
"X$	c #E9FFF1",
"Y$	c #F3FDFD",
"Z$	c #FEF2FE",
"`$	c #FEFFF9",
" %	c #F7F8FD",
".%	c #FEF9FF",
"+%	c #FEFBFC",
"@%	c #F9FEF1",
"#%	c #F4FDFF",
"$%	c #D8FFD0",
"%%	c #35A535",
"&%	c #B5E1B6",
"*%	c #E6FFFF",
"=%	c #FAFFFC",
"-%	c #EBFFDF",
";%	c #9FDE9A",
">%	c #4E9B59",
",%	c #E6F9F1",
"'%	c #D4FEDB",
")%	c #3EA74A",
"!%	c #C1FFC3",
"~%	c #31A621",
"{%	c #90E688",
"]%	c #398A36",
"^%	c #69B66C",
"/%	c #F2FFF9",
"(%	c #FAFEFC",
"_%	c #FAFCFF",
":%	c #FDFBFC",
"<%	c #FFF8FD",
"[%	c #F8FFEB",
"}%	c #EAFFF7",
"|%	c #DBFFDE",
"1%	c #50B053",
"2%	c #50BC57",
"3%	c #F8FFEE",
"4%	c #F4FFFD",
"5%	c #F6FAF3",
"6%	c #F6FFF5",
"7%	c #ECFFEF",
"8%	c #88B98A",
"9%	c #5FA962",
"0%	c #B7FFB9",
"a%	c #4DB64C",
"b%	c #48A546",
"c%	c #7EC87B",
"d%	c #E5FCE8",
"e%	c #F0FFF4",
"f%	c #FBFFF8",
"g%	c #FFFDFE",
"h%	c #FEF9FE",
"i%	c #FEFCFE",
"j%	c #F9FFFF",
"k%	c #F9FBF8",
"l%	c #FEF6FD",
"m%	c #FEFBFD",
"n%	c #ECFFE8",
"o%	c #BAF7BC",
"p%	c #369B3D",
"q%	c #64BC6C",
"r%	c #E4FFE3",
"s%	c #FBF9ED",
"t%	c #FFFDFB",
"u%	c #F8FDF7",
"v%	c #FDFEF8",
"w%	c #FDF8FB",
"x%	c #E8FFE6",
"y%	c #5EBA58",
"z%	c #38B929",
"A%	c #8FEA7C",
"B%	c #A0D590",
"C%	c #F5FFEF",
"D%	c #F6F9FC",
"E%	c #F6FBF0",
"F%	c #FDFBF6",
"G%	c #FFF7F9",
"H%	c #FFF7FB",
"I%	c #FFFCFB",
"J%	c #FBFEFA",
"K%	c #FAFFF5",
"L%	c #E5FFE0",
"M%	c #74CE85",
"N%	c #289D3B",
"O%	c #88CF86",
"P%	c #FFF7F8",
"Q%	c #FCFDFF",
"R%	c #F6F1FF",
"S%	c #ECFFE6",
"T%	c #81D379",
"U%	c #1D9E1B",
"V%	c #5EE163",
"W%	c #C6FDCA",
"X%	c #F1FFF4",
"Y%	c #F9FCF9",
"Z%	c #FCF9F7",
"`%	c #FFF6F7",
" &	c #FFFAFB",
".&	c #FEFEFB",
"+&	c #FEFFFA",
"@&	c #F6FFF0",
"#&	c #F8FCED",
"$&	c #ADE1AB",
"%&	c #3FA146",
"&&	c #3D9A43",
"*&	c #B1F1AE",
"=&	c #F2FFE6",
"-&	c #FAF8F3",
";&	c #F3F4FF",
">&	c #F9FDFF",
",&	c #FBF6FF",
"'&	c #EFFAF9",
")&	c #EDFFF1",
"!&	c #B6EBB6",
"~&	c #5BB75A",
"{&	c #2A9730",
"]&	c #40B24C",
"^&	c #69C776",
"/&	c #83D98D",
"(&	c #8EE596",
"_&	c #91EA97",
":&	c #8CEE94",
"<&	c #7BE086",
"[&	c #69CB73",
"}&	c #58BB5F",
"|&	c #38973E",
"1&	c #47A453",
"2&	c #99D6A2",
"3&	c #E1FFD7",
"4&	c #F5FFF6",
"5&	c #F0FDFD",
"6&	c #F8FEFF",
"7&	c #FCFFF8",
"8&	c #F4F3F6",
"9&	c #FCF4FE",
"0&	c #F9FBFA",
"a&	c #F5FFF0",
"b&	c #C7FFC8",
"c&	c #55CA5E",
"d&	c #2AAB32",
"e&	c #22A62A",
"f&	c #1BA725",
"g&	c #15A41E",
"h&	c #0FA117",
"i&	c #0EA017",
"j&	c #1EA926",
"k&	c #2AAA32",
"l&	c #49BC51",
"m&	c #9EFFA4",
"n&	c #E2FFEC",
"o&	c #F6FEF7",
"p&	c #FFFFF6",
"q&	c #ECFFF6",
"r&	c #EAFFFF",
"s&	c #FEFDF8",
"t&	c #F6FEEA",
"u&	c #FBFFF2",
"v&	c #FCFFF5",
"w&	c #FFFFF5",
"x&	c #FFFBF2",
"y&	c #FFF7F2",
"z&	c #FFF8F9",
"A&	c #FCFFFC",
"B&	c #FFFFF0",
"C&	c #E6FFD7",
"D&	c #CEF8C2",
"E&	c #BDEDB1",
"F&	c #B5E8AB",
"G&	c #B5EAAC",
"H&	c #BBE9B0",
"I&	c #C7EFBB",
"J&	c #E5FFD9",
"K&	c #F8FFED",
"L&	c #FEF9FD",
"M&	c #FCFFFB",
"N&	c #F5FFFA",
"O&	c #F1FFFB",
"P&	c #F2FFF8",
"Q&	c #FAFFF6",
"R&	c #FFFFF3",
"  . + @ # $ % & * = - ; > , ' ) ! ~ { ] ^ / ( _ : < [ } | 1 ",
"2 3 4 5 6 7 8 9 0 a b c d e f g h i j k l m n o p q 6 r 5 s ",
"t u v w x y z A B C D E F G H I J K L M N O P Q R S T r U 5 ",
"x V W X Y Z `  ...+.@.#.$.%.&.*.=.-.;.>.,.'.).!.~.{.].^.- - ",
"5 /.(._.:.<.[.}.|.1.2.3.W 4.5.6.7.8.9.0.a.b.c.d.e.f.g.h.g.i.",
"$ j.k.5 l.m.n.o.p.q.r.s.t.u.v.w.x.U y.z.A.B.C.D.E.F.G.H.I.J.",
"K.L.r M.N.O.P.Q.R.S.T.U.V.W.X.Y.s Z.`. +.+++@+#+$+%+&+*+=+-+",
";+>+,+'+)+!+~+{+]+^+/+(+_+:+<+[+}+|+1+% 2+3+t.4+5+6+7+8+9+0+",
"a+b+c+d+e+f+g+h+i+j+k+l+m+n+o+p+(.q+r+s+t+u+v+w+x+y+z+A+B+C+",
"U D+E+F+G+H+I+J+K+L+M+N+O+P+x Q+R+x 9  +S+T+U+V+W+X+Y+Z+`+ @",
".@+@@@#@$@%@&@*@=@-@;@>@,@'@)@!@~@{@]@`.^@U /@(@_@:@<@[@}@|@",
"1@2@3@4@5@6@7@8@9@0@a@b@c@d@e@f@. g@h@i@j@k@l@m@n@o@p@q@r@s@",
"5@t@u@(.v@w@x@y@z@A@B@C@D@E@F@G@H@I@J@K@L@M@N@O@P@Q@R@S@T@U@",
"V@W@X@Y@Z@`@ #.#+#@###$#%#&#9 *#=#-#;#>#,#'#)#!#~#{#]#^#/#(#",
"_#:#<#[#}#|#1#2#3#4#5#6#7#8#9#0#a#b#c#d#e#f#g#h#i#j#k#B l#m#",
"n#o#p#q#r#s#t#u#v#w#x#y#z#A#B#C#D#E#F#G#H#I#J#K#L#M#N#g+O#P#",
"Q#R#S#- T#U#V#W#X#Y#Z#`# $.$+$@$#$$$%$&$*$=${.-$;$% >$,$'$}#",
")$!$~${$]$^$/$($_$:$<$[$}$|$1$2$3$4$5$6$7$8$9$0$a$b$c$d$e$f$",
"g$h$i$E@j$k$l$m$n$o$p$q$r$s$t$u$v$w$x$y$z$- A$B$C$D$E$F$G$H$",
"I$J$K$L$M$N$O$P$Q$R$S$T$U$V$W$X$Y$Z$`$ %.%+%@%#%- $%%%&%*%=%",
"M.-%;%>%,%'%)%!%~%{%]%^%##/%(%_%5 U :%A$t <%[%}%|%1%2%3%4%5%",
"6%Q+7%8%9%0%a%b%c%k+d%e%f%g%h%i% +s#j%k%l%m%n%o%p%q%r%s%t%u%",
"v%x w%x%y%z%A%B%C%D%7 E%F%G%H%I%J%u K%E@9.L%M%N%O%D+P%{@A$Q%",
"9 R%5@8$S%T%U%V%W%X%Y%Z%`% &.&+&6%x$@&#&$&%&&&*&=&-&0 - ;&]+",
">&5@,&A$'&)&!&~&{&]&^&/&(&_&<@:&<&[&}&|&1&2&3&M#4&5&6&5 ]+7&",
"u#8&- 9&V 0&+&a&b&c&d&e&f&g&h&i&j&k&l&m&n&o&$ p&q&r&[#Z s&t&",
"u&v&w&x&y&z&- g.A&B&C&D&E&F&G&H&I&J&K&>$L&t x g%M&N&O&P&Q&R&"};
