/* XPM */
static char * bxLogo_35_xpm[] = {
"35 31 933 2",
"  	c #F2FFFA",
". 	c #F5FFFE",
"+ 	c #FBFFFF",
"@ 	c #FFFDFE",
"# 	c #FFFCF5",
"$ 	c #FFFFF1",
"% 	c #FFFFF7",
"& 	c #FFFEF9",
"* 	c #FFFAEE",
"= 	c #FCFDF2",
"- 	c #FAFFFE",
"; 	c #FFFAFF",
"> 	c #F7FCF9",
", 	c #F7FFF3",
"' 	c #FFFFE8",
") 	c #F5FFDE",
"! 	c #DFFDD3",
"~ 	c #CDF8C7",
"{ 	c #BFF5B9",
"] 	c #9CF39A",
"^ 	c #68F173",
"/ 	c #4BE04D",
"( 	c #3BD835",
"_ 	c #41E73F",
": 	c #62E657",
"< 	c #8DF386",
"[ 	c #99F2A5",
"} 	c #AFF3C7",
"| 	c #DBFFEB",
"1 	c #FBFFF3",
"2 	c #FFFDF2",
"3 	c #FEFFF3",
"4 	c #F4FFF4",
"5 	c #ECFFF6",
"6 	c #FEFBFC",
"7 	c #F8FFFB",
"8 	c #F1FFFD",
"9 	c #FDFEFF",
"0 	c #FFF9FD",
"a 	c #FFF9FB",
"b 	c #FBFFFB",
"c 	c #FAFFFB",
"d 	c #FFFCFE",
"e 	c #FFF4FC",
"f 	c #FEFDF7",
"g 	c #F4FFF2",
"h 	c #F3FFFE",
"i 	c #ECFFFD",
"j 	c #C6FFD1",
"k 	c #9ADD95",
"l 	c #6FCC6F",
"m 	c #4FC355",
"n 	c #31B33A",
"o 	c #2AA92D",
"p 	c #1EA220",
"q 	c #10AB18",
"r 	c #0AB306",
"s 	c #07B901",
"t 	c #04B702",
"u 	c #07AB00",
"v 	c #1EAF13",
"w 	c #1BA41E",
"x 	c #279434",
"y 	c #BAF7C1",
"z 	c #FFFEFA",
"A 	c #FFF6FE",
"B 	c #FFF7FF",
"C 	c #FCFEFE",
"D 	c #F9FFFD",
"E 	c #FFF5FF",
"F 	c #F9FDF9",
"G 	c #EEFFF6",
"H 	c #F9FFFE",
"I 	c #FFF9FF",
"J 	c #FFF8FF",
"K 	c #F8FFFE",
"L 	c #EDF8FC",
"M 	c #FFFDFF",
"N 	c #F3FEEE",
"O 	c #DCFFDA",
"P 	c #C3FBCF",
"Q 	c #56BF67",
"R 	c #23AE36",
"S 	c #23B435",
"T 	c #10AA26",
"U 	c #08A71D",
"V 	c #0AAD1A",
"W 	c #13A81D",
"X 	c #189D1C",
"Y 	c #1A9F1C",
"Z 	c #17A910",
"` 	c #10AC07",
" .	c #0FAB0B",
"..	c #19B711",
"+.	c #009E00",
"@.	c #10B211",
"#.	c #1D9C20",
"$.	c #BCFFBA",
"%.	c #FEFDF9",
"&.	c #FFF3FF",
"*.	c #FFF2FF",
"=.	c #FEFDFE",
"-.	c #F9FFF5",
";.	c #FAFFF2",
">.	c #FDFFF9",
",.	c #FFFEFF",
"'.	c #F8F8FF",
").	c #FDFDFF",
"!.	c #F9FEFE",
"~.	c #E0FFE0",
"{.	c #A5F1AC",
"].	c #4BD054",
"^.	c #08A403",
"/.	c #06A900",
"(.	c #14B318",
"_.	c #1DAC31",
":.	c #3DB054",
"<.	c #72D583",
"[.	c #75D27B",
"}.	c #A0F2A3",
"|.	c #C9FFC7",
"1.	c #E3FFDE",
"2.	c #E0FFDF",
"3.	c #D3FFD6",
"4.	c #BCF3C3",
"5.	c #93D997",
"6.	c #69C56E",
"7.	c #47BE51",
"8.	c #22942C",
"9.	c #C8FFC8",
"0.	c #F6FFE9",
"a.	c #FFFBFC",
"b.	c #FFFBFF",
"c.	c #FFFCFF",
"d.	c #FEFEFF",
"e.	c #FAFFFA",
"f.	c #F6FFEE",
"g.	c #FBFFF1",
"h.	c #FFFFFC",
"i.	c #F4F4F5",
"j.	c #EDFFF4",
"k.	c #A9EEAB",
"l.	c #5BCF5B",
"m.	c #1AA127",
"n.	c #11941B",
"o.	c #2B9F1B",
"p.	c #72D05F",
"q.	c #A3E59E",
"r.	c #BFFCCB",
"s.	c #E4FFEE",
"t.	c #F5FFF3",
"u.	c #F8FFEB",
"v.	c #F5FFE8",
"w.	c #F3FFE6",
"x.	c #FBFFEE",
"y.	c #F2FFF5",
"z.	c #D9FEE9",
"A.	c #B1F4C0",
"B.	c #C9FFD1",
"C.	c #DBFFDF",
"D.	c #CDFFCF",
"E.	c #ABE5AC",
"F.	c #E2FFE0",
"G.	c #F8FFF7",
"H.	c #FCFFFD",
"I.	c #FFFBFD",
"J.	c #FEFFFF",
"K.	c #F9FFFF",
"L.	c #F8FFFA",
"M.	c #FBFFF9",
"N.	c #F9FFF2",
"O.	c #E8FFE2",
"P.	c #8FE889",
"Q.	c #1EA91C",
"R.	c #0CA20C",
"S.	c #27A22D",
"T.	c #84D587",
"U.	c #D9FFCA",
"V.	c #F7FFE3",
"W.	c #DBFEE3",
"X.	c #D6F5D4",
"Y.	c #EEF0DC",
"Z.	c #FFEDEA",
"`.	c #FFF7EF",
" +	c #FDFEED",
".+	c #FDFFEE",
"++	c #EFFFFC",
"@+	c #BFFBD8",
"#+	c #1E962D",
"$+	c #24A02B",
"%+	c #4DB74A",
"&+	c #A3EB99",
"*+	c #E7FFDA",
"=+	c #F1FFEC",
"-+	c #F7FFFF",
";+	c #FCFFFF",
">+	c #FFFCF7",
",+	c #FAFEF1",
"'+	c #FEFEFA",
")+	c #FAF8FD",
"!+	c #FBFBFF",
"~+	c #E4FFE8",
"{+	c #79E071",
"]+	c #0BA001",
"^+	c #29BC21",
"/+	c #7FD97B",
"(+	c #DDFFD8",
"_+	c #FDFFF6",
":+	c #F7FEF3",
"<+	c #F8FAF2",
"[+	c #EBFFEA",
"}+	c #82E28B",
"|+	c #2CAB27",
"1+	c #479635",
"2+	c #EBEEDA",
"3+	c #FFF7FE",
"4+	c #FEFDFA",
"5+	c #F6FFFF",
"6+	c #C7FAE4",
"7+	c #1A951C",
"8+	c #0BA90A",
"9+	c #0EB50B",
"0+	c #0CA401",
"a+	c #54C443",
"b+	c #C1EFB4",
"c+	c #F1FFF3",
"d+	c #F5FDFB",
"e+	c #FAFBFF",
"f+	c #F9FBFB",
"g+	c #FBFEEE",
"h+	c #E9FDE8",
"i+	c #F5F9F3",
"j+	c #FFF0FF",
"k+	c #F2FFFB",
"l+	c #7BD183",
"m+	c #1E9A18",
"n+	c #59C04D",
"o+	c #C2F9B9",
"p+	c #EEFCEC",
"q+	c #FCFEFA",
"r+	c #FAF3F9",
"s+	c #FBFCFF",
"t+	c #F7FEFE",
"u+	c #D5FFE1",
"v+	c #22AB34",
"w+	c #0AA911",
"x+	c #289E26",
"y+	c #EEFFED",
"z+	c #FBFFF5",
"A+	c #FBFFFE",
"B+	c #EDFEF9",
"C+	c #ADDDA8",
"D+	c #73D470",
"E+	c #25AC24",
"F+	c #08A607",
"G+	c #09A408",
"H+	c #34B632",
"I+	c #8EDB89",
"J+	c #EBFBDB",
"K+	c #FFFEF2",
"L+	c #FFFBF6",
"M+	c #F0FEF6",
"N+	c #E8FFF1",
"O+	c #F8FDFB",
"P+	c #FEE9F9",
"Q+	c #FCFFF9",
"R+	c #96D396",
"S+	c #1E8A1E",
"T+	c #72CA68",
"U+	c #E5FFDA",
"V+	c #E9EFE7",
"W+	c #F8F5FA",
"X+	c #F1FFFA",
"Y+	c #E8FEF5",
"Z+	c #CEFEE0",
"`+	c #7AE18E",
" @	c #80E691",
".@	c #A2FFAF",
"+@	c #E2FFEC",
"@@	c #F5FEF9",
"#@	c #FDFFFA",
"$@	c #FAFFEE",
"%@	c #FEFFF7",
"&@	c #FFFEFB",
"*@	c #F3FEF1",
"=@	c #E8FEE7",
"-@	c #DAFFD9",
";@	c #9BF69C",
">@	c #2FB235",
",@	c #13A21D",
"'@	c #29A229",
")@	c #C3F6A8",
"!@	c #FFFFD9",
"~@	c #F0FEFD",
"{@	c #F1F9FB",
"]@	c #F4F8F7",
"^@	c #F8FFF9",
"/@	c #BAF8B7",
"(@	c #389E2F",
"_@	c #65C155",
":@	c #EFFFDA",
"<@	c #E2EDEA",
"[@	c #CAEDDF",
"}@	c #ECFFEA",
"|@	c #E4FFE2",
"1@	c #D2FBD8",
"2@	c #63926C",
"3@	c #CEEBD6",
"4@	c #E1F3EC",
"5@	c #EFFFFA",
"6@	c #F3FFFD",
"7@	c #FFFFFB",
"8@	c #FFFDF9",
"9@	c #FFF8F5",
"0@	c #FEFEF4",
"a@	c #E1FDEA",
"b@	c #EDFCF2",
"c@	c #F6FBF1",
"d@	c #FFFCF6",
"e@	c #E6FFE2",
"f@	c #8CD697",
"g@	c #2A9E3B",
"h@	c #479E43",
"i@	c #E1FFCC",
"j@	c #FFFEEE",
"k@	c #FCFAFF",
"l@	c #FCF6FE",
"m@	c #FDFFF7",
"n@	c #EDFFDE",
"o@	c #65BA5E",
"p@	c #46AD48",
"q@	c #C2FFC6",
"r@	c #DEFFD8",
"s@	c #92CF90",
"t@	c #3F9345",
"u@	c #30963F",
"v@	c #A2E5A7",
"w@	c #94D28E",
"x@	c #C1F7BC",
"y@	c #8DDA8C",
"z@	c #59A755",
"A@	c #FEFAFD",
"B@	c #EDFFF0",
"C@	c #F5FEF4",
"D@	c #FDFDFE",
"E@	c #FBFFFC",
"F@	c #F1FCFB",
"G@	c #FCF6F6",
"H@	c #FFFCEB",
"I@	c #EEFFDF",
"J@	c #91E49A",
"K@	c #239D37",
"L@	c #5BBC6A",
"M@	c #E9FFE7",
"N@	c #FEFDF8",
"O@	c #FEF6FD",
"P@	c #F3FAE6",
"Q@	c #B5F29E",
"R@	c #34872B",
"S@	c #AAE4B5",
"T@	c #D8FFEE",
"U@	c #B3EFBD",
"V@	c #35A237",
"W@	c #AFFEAE",
"X@	c #78EB7B",
"Y@	c #7CDD7C",
"Z@	c #4B9544",
"`@	c #55AB54",
" #	c #5AC757",
".#	c #79DB6E",
"+#	c #FCFFE6",
"@#	c #FFF9F9",
"##	c #FFFAFE",
"$#	c #F2FFF3",
"%#	c #FAFFFC",
"&#	c #A9CEB7",
"*#	c #CBE7CB",
"=#	c #F7FFE1",
"-#	c #E9FFD0",
";#	c #C9FFCB",
">#	c #69DE80",
",#	c #239E3D",
"'#	c #AFEFB9",
")#	c #F7F7E5",
"!#	c #E8FFDE",
"~#	c #52AD49",
"{#	c #62AD5E",
"]#	c #E9FFF1",
"^#	c #F4FFFF",
"/#	c #C7F7D1",
"(#	c #4BB04F",
"_#	c #A0FCA0",
":#	c #3DC539",
"<#	c #7FCD7B",
"[#	c #D1FFCF",
"}#	c #40B144",
"|#	c #169419",
"1#	c #B0FFAD",
"2#	c #FFFCF8",
"3#	c #F9F5F4",
"4#	c #FBFCFE",
"5#	c #FCF8FF",
"6#	c #FCFFF2",
"7#	c #FAFBF4",
"8#	c #669D60",
"9#	c #8CD58F",
"0#	c #C8FFC5",
"a#	c #7ECE78",
"b#	c #52B954",
"c#	c #B8FEC0",
"d#	c #43A94D",
"e#	c #79CA84",
"f#	c #F8FFEC",
"g#	c #FDFAF9",
"h#	c #BCF7BC",
"i#	c #2FA032",
"j#	c #C2F7C4",
"k#	c #E4FBE1",
"l#	c #5EAE59",
"m#	c #2FAD2D",
"n#	c #39C53E",
"o#	c #3A983C",
"p#	c #C4FBC2",
"q#	c #B3ECAE",
"r#	c #3F993D",
"s#	c #D2FDCF",
"t#	c #F7FEED",
"u#	c #FFFAF0",
"v#	c #FFFEF8",
"w#	c #EBF8F2",
"x#	c #EEFFFF",
"y#	c #EFFEFF",
"z#	c #E2F6E5",
"A#	c #C1D7C0",
"B#	c #F6FFF4",
"C#	c #F5FFF2",
"D#	c #EAFFDE",
"E#	c #72C868",
"F#	c #8ACA91",
"G#	c #66D268",
"H#	c #36BA31",
"I#	c #47B744",
"J#	c #B9EEC2",
"K#	c #A5EEB2",
"L#	c #49BB52",
"M#	c #E5FFDE",
"N#	c #FFFFFF",
"O#	c #8CD090",
"P#	c #45BA4E",
"Q#	c #F0FFF9",
"R#	c #FAFFF5",
"S#	c #FFFFF2",
"T#	c #79B570",
"U#	c #81FD81",
"V#	c #B5FFC0",
"W#	c #56AF5C",
"X#	c #D2FBD0",
"Y#	c #C3F5C1",
"Z#	c #69B26B",
"`#	c #D6FED7",
" $	c #FAFFF0",
".$	c #FFFCF9",
"+$	c #F5FFFF",
"@$	c #E4FEF7",
"#$	c #EBFFF9",
"$$	c #BEDCBE",
"%$	c #88AD87",
"&$	c #E1FFE0",
"*$	c #B2EDAE",
"=$	c #38A32B",
"-$	c #2B9223",
";$	c #90DA9A",
">$	c #3DB73A",
",$	c #56EA4E",
"'$	c #64CD5F",
")$	c #D6FCE1",
"!$	c #C1F7D2",
"~$	c #2DAD39",
"{$	c #D9F7D5",
"]$	c #FDFFFD",
"^$	c #80C381",
"/$	c #86EB8D",
"($	c #E8FFFA",
"_$	c #F7FDF5",
":$	c #FFFFED",
"<$	c #FFF9FA",
"[$	c #8EC289",
"}$	c #5BCC64",
"|$	c #5EB967",
"1$	c #88CB89",
"2$	c #D6FFD4",
"3$	c #A1E5AB",
"4$	c #5AAD67",
"5$	c #DFFEE6",
"6$	c #F6FFF1",
"7$	c #F3FBFF",
"8$	c #F0FFED",
"9$	c #E5F2D6",
"0$	c #A1D293",
"a$	c #BCFFB6",
"b$	c #3EC63C",
"c$	c #77DE6C",
"d$	c #50BB4A",
"e$	c #6DCE7D",
"f$	c #2EAA28",
"g$	c #4DCF3B",
"h$	c #5EC15F",
"i$	c #9BCAA3",
"j$	c #D2F8E0",
"k$	c #2DAC3E",
"l$	c #CEF8CD",
"m$	c #F9FEF3",
"n$	c #86BA7B",
"o$	c #BCF4B8",
"p$	c #E0FFF5",
"q$	c #F6FFFC",
"r$	c #F9FFF0",
"s$	c #FFFEFD",
"t$	c #B7E6BE",
"u$	c #2A7B38",
"v$	c #9EC99D",
"w$	c #EDFFE4",
"x$	c #E5FFDC",
"y$	c #CFECCC",
"z$	c #B9E2C2",
"A$	c #E4FFF1",
"B$	c #DCF9DA",
"C$	c #E5FBDA",
"D$	c #F6FFEF",
"E$	c #E2FFEA",
"F$	c #91DD9B",
"G$	c #4FA257",
"H$	c #B9F1BA",
"I$	c #52964D",
"J$	c #C4FEBE",
"K$	c #35BF36",
"L$	c #BCFFB1",
"M$	c #74CE6E",
"N$	c #7BD38C",
"O$	c #5BB750",
"P$	c #288412",
"Q$	c #74C178",
"R$	c #E6FDE7",
"S$	c #D7F7DC",
"T$	c #4BC05F",
"U$	c #D9FBD8",
"V$	c #EFFCEA",
"W$	c #79A669",
"X$	c #CCF2C0",
"Y$	c #EBFFFA",
"Z$	c #F0FFFC",
"`$	c #F4FFFA",
" %	c #DFFCEC",
".%	c #E6FFF1",
"+%	c #F7FDEC",
"@%	c #F5FFED",
"#%	c #F7FFF1",
"$%	c #DEFFE6",
"%%	c #A9DDA2",
"&%	c #67A557",
"*%	c #A9EA9D",
"=%	c #7FD883",
"-%	c #289E30",
";%	c #5CC763",
">%	c #BBF1BE",
",%	c #589F5B",
"'%	c #B6FEBA",
")%	c #29AB2C",
"!%	c #8FEB87",
"~%	c #3A8136",
"{%	c #7AC188",
"]%	c #DEFFD2",
"^%	c #E9FFD4",
"/%	c #E9FFEA",
"(%	c #F2FFEF",
"_%	c #CBF4CE",
":%	c #54BF66",
"<%	c #E2FFDE",
"[%	c #EBFEED",
"}%	c #75AE6C",
"|%	c #BDF3AE",
"1%	c #FAFFF8",
"2%	c #E9FFFA",
"3%	c #F3FEFF",
"4%	c #FAFFFF",
"5%	c #EFF4EC",
"6%	c #FFFDFA",
"7%	c #F5FDF2",
"8%	c #F3FFF5",
"9%	c #EDFFEF",
"0%	c #EFFFF4",
"a%	c #C4E5C4",
"b%	c #5DAB4E",
"c%	c #3C9A2E",
"d%	c #77D571",
"e%	c #4BD352",
"f%	c #3ABB3B",
"g%	c #62BE5A",
"h%	c #C3F1BA",
"i%	c #448B48",
"j%	c #CEFFD9",
"k%	c #75CA7A",
"l%	c #74B570",
"m%	c #ADDFAA",
"n%	c #DCFDE4",
"o%	c #F0FFE9",
"p%	c #FAFFED",
"q%	c #F9FFF4",
"r%	c #F5FFF0",
"s%	c #B6E9B7",
"t%	c #6EBD79",
"u%	c #F2FFED",
"v%	c #E9FFF8",
"w%	c #75C478",
"x%	c #92E888",
"y%	c #FFFAF5",
"z%	c #F4FBF7",
"A%	c #E7FFF9",
"B%	c #F8FCFF",
"C%	c #FFFCFB",
"D%	c #FEFEED",
"E%	c #F6FFF7",
"F%	c #E9FFF4",
"G%	c #D7FFDF",
"H%	c #D6FAD9",
"I%	c #65A971",
"J%	c #9BF4AB",
"K%	c #62CD66",
"L%	c #52B649",
"M%	c #C9FFBE",
"N%	c #C0FFBE",
"O%	c #ABFFA9",
"P%	c #409C39",
"Q%	c #A9DE9E",
"R%	c #85B97C",
"S%	c #DFFFDA",
"T%	c #E6FFE8",
"U%	c #EAFEEC",
"V%	c #F0FFF0",
"W%	c #F3FFF1",
"X%	c #F4F8F6",
"Y%	c #FFFBF9",
"Z%	c #EEFFE9",
"`%	c #58A25D",
" &	c #B1E0B8",
".&	c #EBFFFE",
"+&	c #86D18F",
"@&	c #57BA4F",
"#&	c #FFFFF4",
"$&	c #F8FBF6",
"%&	c #E4FFF4",
"&&	c #FAFCFF",
"*&	c #FBF7F1",
"=&	c #ECF7D1",
"-&	c #C8F2CB",
";&	c #D0FFDF",
">&	c #3C8447",
",&	c #D9FFD7",
"'&	c #53A059",
")&	c #BDFEC9",
"!&	c #A7E9AB",
"~&	c #5AB853",
"{&	c #C9FFC0",
"]&	c #6AD26A",
"^&	c #379238",
"/&	c #6BAE69",
"(&	c #DFFED8",
"_&	c #EEFFEB",
":&	c #FAFEFB",
"<&	c #FDFEFE",
"[&	c #F9FFF9",
"}&	c #F6FEF3",
"|&	c #FEF7FE",
"1&	c #FFFCF1",
"2&	c #A9EAA4",
"3&	c #41904B",
"4&	c #F1FFF9",
"5&	c #FCFAF5",
"6&	c #F8FFFF",
"7&	c #B8F9BE",
"8&	c #379B2A",
"9&	c #CCE9BB",
"0&	c #F7FFF4",
"a&	c #EFFEF9",
"b&	c #DAF5D5",
"c&	c #6BA959",
"d&	c #359430",
"e&	c #7BE782",
"f&	c #37933F",
"g&	c #EBFFE1",
"h&	c #6CAB63",
"i&	c #BBFEB6",
"j&	c #B3E5AA",
"k&	c #479540",
"l&	c #9FE9A8",
"m&	c #B4E4BB",
"n&	c #EDFFED",
"o&	c #F3FEF0",
"p&	c #EDFEF8",
"q&	c #FEFBFF",
"r&	c #FFF9FE",
"s&	c #F3FDFA",
"t&	c #FDFBFE",
"u&	c #FCFBFB",
"v&	c #D9FBCE",
"w&	c #3B8E37",
"x&	c #AEF1B7",
"y&	c #F3FFEA",
"z&	c #79C965",
"A&	c #4DA34C",
"B&	c #DCFFE7",
"C&	c #F3FCFF",
"D&	c #E6FFF0",
"E&	c #6EB97A",
"F&	c #78E679",
"G&	c #74EB61",
"H&	c #6BE161",
"I&	c #2B9A29",
"J&	c #BAFFB1",
"K&	c #40A53E",
"L&	c #93F799",
"M&	c #D3F7DA",
"N&	c #C1E7C4",
"O&	c #E9FFEB",
"P&	c #EFFFF9",
"Q&	c #F8F6FF",
"R&	c #FFF1FF",
"S&	c #FFFFFA",
"T&	c #F9F9FB",
"U&	c #FBF8FF",
"V&	c #F8FAED",
"W&	c #FEFCFF",
"X&	c #EBFFE0",
"Y&	c #5CD15E",
"Z&	c #64B260",
"`&	c #EBFFF4",
" *	c #E5FEFF",
".*	c #FCFFFC",
"+*	c #F1FFEA",
"@*	c #DFFFD2",
"#*	c #3F9744",
"$*	c #94C7A0",
"%*	c #CEFDD4",
"&*	c #4BB357",
"**	c #B2FEBA",
"=*	c #82E473",
"-*	c #78DE6B",
";*	c #47A442",
">*	c #3C8D3A",
",*	c #65B568",
"'*	c #C0FFC8",
")*	c #ECFFF4",
"!*	c #FEFAFC",
"~*	c #FFF4FF",
"{*	c #FDFDF1",
"]*	c #F6FFEC",
"^*	c #E2FFE6",
"/*	c #7BC87A",
"(*	c #26A12F",
"_*	c #D4F9CE",
":*	c #F1FEEB",
"<*	c #F6F9F2",
"[*	c #F2FFF2",
"}*	c #E8FFEA",
"|*	c #C7EBCA",
"1*	c #4D8752",
"2*	c #99DB9D",
"3*	c #BEFFC2",
"4*	c #53BD55",
"5*	c #64C065",
"6*	c #439F40",
"7*	c #B9EEB3",
"8*	c #CBF3C8",
"9*	c #CDEAD1",
"0*	c #EEFFF3",
"a*	c #FBFDF9",
"b*	c #FAF4FB",
"c*	c #FDFFFF",
"d*	c #FAFDFB",
"e*	c #FCF6FB",
"f*	c #FFF6FF",
"g*	c #FAFDF5",
"h*	c #EEFFE7",
"i*	c #C1FAC2",
"j*	c #56B75D",
"k*	c #2E9138",
"l*	c #AFF1B5",
"m*	c #F2FFEA",
"n*	c #FDF7ED",
"o*	c #FFFDFB",
"p*	c #FAFCF2",
"q*	c #FFF8FB",
"r*	c #F5FFF5",
"s*	c #9BDA9A",
"t*	c #2D9828",
"u*	c #75EB67",
"v*	c #8AE078",
"w*	c #56A146",
"x*	c #C4E5BA",
"y*	c #F7FFF7",
"z*	c #EDF6E8",
"A*	c #FBF8F1",
"B*	c #FDFAFB",
"C*	c #F9FDFA",
"D*	c #F7FFF9",
"E*	c #FEFFF6",
"F*	c #F9FFEC",
"G*	c #DDFEE0",
"H*	c #A7F9B7",
"I*	c #32A343",
"J*	c #4CA14E",
"K*	c #D0F9C4",
"L*	c #F9FBFF",
"M*	c #FDF7FF",
"N*	c #F7F8F7",
"O*	c #F2FFEE",
"P*	c #97DE8E",
"Q*	c #2EA020",
"R*	c #57C94B",
"S*	c #9EF998",
"T*	c #DBFFD9",
"U*	c #F0FCF5",
"V*	c #FDFEFC",
"W*	c #FFFAFA",
"X*	c #FFF8FA",
"Y*	c #FFF5F7",
"Z*	c #FFFDFC",
"`*	c #FBFFF7",
" =	c #FAFFF3",
".=	c #BEEBB8",
"+=	c #68C270",
"@=	c #198527",
"#=	c #D4FFCC",
"$=	c #FCFCEC",
"%=	c #FFF4FA",
"&=	c #F6F9FF",
"*=	c #F6F8F5",
"==	c #F4FFF0",
"-=	c #C6F7C3",
";=	c #4DBC4F",
">=	c #1CA122",
",=	c #41B34A",
"'=	c #8AD090",
")=	c #D4FBD7",
"!=	c #F9FFF6",
"~=	c #F8FFF5",
"{=	c #EEFFEC",
"]=	c #F0FFF1",
"^=	c #EDFFF1",
"/=	c #EFFFF0",
"(=	c #E0FFDE",
"_=	c #A9C9A4",
":=	c #6C9D6B",
"<=	c #31903B",
"[=	c #4CAA53",
"}=	c #C3F0BE",
"|=	c #E1FED5",
"1=	c #F6F8F1",
"2=	c #FCFBFF",
"3=	c #FBFAFF",
"4=	c #FFFEFE",
"5=	c #F8FCFE",
"6=	c #FCF4FF",
"7=	c #EDFCFA",
"8=	c #B9EDB3",
"9=	c #449A44",
"0=	c #22A02E",
"a=	c #14A526",
"b=	c #21A42F",
"c=	c #3BBC49",
"d=	c #48CB55",
"e=	c #4BD157",
"f=	c #4ED75A",
"g=	c #4EDA5A",
"h=	c #44D451",
"i=	c #30BE3F",
"j=	c #1BA628",
"k=	c #179A22",
"l=	c #26A430",
"m=	c #3FA64A",
"n=	c #ADEDBB",
"o=	c #E9FDDB",
"p=	c #F2FFF8",
"q=	c #EDFFFF",
"r=	c #ECFFFF",
"s=	c #FFFEFC",
"t=	c #F8FAF8",
"u=	c #FEFCFC",
"v=	c #FFFAFD",
"w=	c #FFFFFD",
"x=	c #FAFFF9",
"y=	c #B3F7B6",
"z=	c #78D17A",
"A=	c #58C75B",
"B=	c #42B645",
"C=	c #2BA62F",
"D=	c #1E9D23",
"E=	c #199B1D",
"F=	c #1A9C1E",
"G=	c #209E23",
"H=	c #3DB140",
"I=	c #5DC760",
"J=	c #80D583",
"K=	c #B0FEB2",
"L=	c #E2FFE7",
"M=	c #F7FFFC",
"N=	c #FDFDFA",
"O=	c #FFFFF9",
"P=	c #EDFFFE",
"Q=	c #F7FFFE",
"R=	c #FDFDFC",
"S=	c #FEFDF4",
"T=	c #FCFFF3",
"U=	c #FFFDF4",
"V=	c #FFF9F0",
"W=	c #FFF6F3",
"X=	c #FEFFE9",
"Y=	c #E3FFD5",
"Z=	c #D4FAC7",
"`=	c #CAF5BE",
" -	c #C5F2BA",
".-	c #C3F3BA",
"+-	c #C5F3BB",
"@-	c #CBF3C0",
"#-	c #D6F8C9",
"$-	c #EBFFDE",
"%-	c #FDFFF2",
"&-	c #FDFAFA",
"*-	c #FDFFFB",
"=-	c #F6FFFA",
"--	c #F3FFF6",
";-	c #FCFFF5",
">-	c #FFFFF3",
"  . + @ # $ % & # * = - ; > , ' ) ! ~ { ] ^ / ( _ : < [ } | 1 2 3 4 5 ",
"6 7 8 9 0 a b c d e f g h i j k l m n o p q r s t u v w x y z A B C D ",
"E F G H I J K L M ; N O P Q R S T U V W X Y Z `  ...+.@.#.$.%.&.*.I ; ",
"I =.-.;.>.,.'.).!.~.{.].^./.(._.:.<.[.}.|.1.2.3.4.5.6.7.8.9.0.a.J b.c.",
"; d.e.f.g.h.i.j.k.l.m.n.o.p.q.r.s.t.u.v.w.x.y.z.A.B.C.D.E.F.G.H.9 d.I.",
"c.J.K.L.M.N.O.P.Q.R.S.T.U.V.g.W.X.Y.Z.`. +.+++@+#+$+%+&+*+=+H -+-+;+>+",
",+'+)+I !+~+{+]+^+/+(+_+:+<+[+}+|+1+2+3+J 4+5+6+7+8+9+0+a+b+c+d+e+f+g+",
"h+i+B j+k+l+m+n+o+p+q+r+s+t+u+v+w+x+y+d.,.z+A+B+C+D+E+F+G+H+I+J+K+L+M+",
"N+O+P+Q+R+S+T+U+V+; W+A+X+Y+Z+`+ @.@+@@@#@$@%@&@*@=@-@;@>@,@'@)@!@* ~@",
"{@]@^@/@(@_@:@_+<@[@+@}@|@1@2@3@4@5@6@b 7@8@9@0@a@b@c@d@e@f@g@h@i@j@k@",
"l@m@n@o@p@q@r@s@t@u@v@w@x@y@z@$@A@,.B@C@b.I D@Q+E@F@5+G@H@I@J@K@L@M@N@",
"O@P@Q@R@S@T@U@V@W@X@Y@Z@`@ #.#+#@###$#%#J I K.^@J K.&#*#=#-#;#>#,#'#)#",
"6 !#~#{#]#^#/#(#_#:#<#[#}#|#1#w.2#3#5+4#5#z+6#7#B 1 8#9#0#a#b#c#d#e#f#",
"g#h#i#j#b h.k#l#m#n#o#p#q#r#s#t#u#v#w#x#y#z#A#B#C#D#E#F#G#H#I#J#K#L#M#",
"N#O#P#Q#R#S#% T#U#V#W#X#Y#Z#`# $.$I.+$@$#$$$%$&$*$=$-$;$>$,$'$)$!$~${$",
"]$^$/$($_$:$<$[$}$|$1$2$3$4$5$6$b.B 7$5@8$9$0$a$b$c$d$e$f$g$h$i$j$k$l$",
"m$n$o$p$q$r$s$t$u$v$w$x$y$z$A$B$C$D$E$F$G$H$I$J$K$L$M$N$O$P$Q$R$S$T$U$",
"V$W$X$Y$Z$`$K  %.%m@+%@%#%q$$%%%&%*%=%-%;%>%,%'%)%!%~%{%]%^%/%(%_%:%<%",
"[%}%|%1%  2%3%4%5%6%7%8%9%0%a%b%c%d%e%f%g%h%i%j%k%l%m%n%o%p%q%r%s%t%u%",
"v%w%x%y%z%A%B%C%D%E%F%G%H%I%J%K%L%M%N%O%P%Q%R%S%T%U%V%W%X%; Y%Z%`% &_+",
".&+&@&#&$&%&&&*&=&-&;&>&,&'&)&!&~&{&]&^&/&(&_&$#:&<&[&}&M |&1&2&3&4&5&",
"6&7&8&9&0&8 a&b&c&d&e&f&g&h&i&j&k&|.l&m&n&o&p&5+q&r&N#s&t&u&v&w&x&^#&@",
"E y&z&A&B&C&D&E&F&G&H&I&J&K&L&M&N&O&P&Q&R&S&T&U&; V&q%C&W&X&Y&Z&`& *.*",
"W&+*@*#*$*5@%*&***=*-*;*>*,*'*)*7 J.!+I J !*N#; ~*{*]*#$^*/*(*_*:*^#<*",
"E%[*}*|*1*2*3*4*5*6*7*8*9*0*G.a*M b*c*4%K.K.d*e*f*g*h*i*j*k*l*m*n*o*_$",
"p*@ q*r*s*t*u*v*w*x*y*4%r*z*A*a.##b.B*C*D*Q+E*S#F*G*H*I*J*K*$ I.J ,.L*",
"M M*b.N*O*P*Q*R*S*T*U*,.V*6%W*X*Y*Z*7@`*0& =#&$@.=+=@=+=#=$=%=E q&e+M ",
"I q&&=N#*===-=;=>=,='=)=7 [&!=~=0&{=]=^=/=(=_=:=<=[=}=|=]*1=c.b.2=3=4=",
"-+5=J 6=&&7=0%8$8=9=0=a=b=c=d=e=f=g=h=i=j=k=l=m=n=_&o=v.p=q=r=).; s=, ",
"y*t=u=v=!*Z*u&w=x=9%y=z=A=B=C=D=E=F=G=H=I=J=K=L=M=N=o*O=p=P=P=Q=R=S=F*",
"g.T=#&U=V=W=X*b.;+- %@X=Y=Z=`= -.-+-@-#-$-f#%-&-f*B ; @ *-=-  Q#--;->-"};
