/* XPM */
static char * bxLogo_20_xpm[] = {
"27 24 586 2",
"  	c #F4FFFB",
". 	c #F7FFFF",
"+ 	c #FFFEFF",
"@ 	c #FFFCF5",
"# 	c #FFFFF4",
"$ 	c #FEFFF8",
"% 	c #FFFCF7",
"& 	c #FFFAEF",
"* 	c #F9FFF8",
"= 	c #FFFCFF",
"- 	c #F4FEF8",
"; 	c #FBFFEF",
"> 	c #FAFFE2",
", 	c #D3FAC8",
"' 	c #B3EBAF",
") 	c #94E190",
"! 	c #58DF63",
"~ 	c #3AD13A",
"{ 	c #32DA2F",
"] 	c #45D63C",
"^ 	c #77DF71",
"/ 	c #86DA97",
"( 	c #C0F6D4",
"_ 	c #FBFFF3",
": 	c #FFFCF4",
"< 	c #FAFFF6",
"[ 	c #EEFFF7",
"} 	c #FFF8FD",
"| 	c #F1FFF7",
"1 	c #F7FFFE",
"2 	c #FFF7FF",
"3 	c #FEFAFF",
"4 	c #F1FEFA",
"5 	c #FEFDFF",
"6 	c #FFF2FF",
"7 	c #F7FFED",
"8 	c #E4FFF2",
"9 	c #C8F9DD",
"0 	c #6EE17C",
"a 	c #1FA028",
"b 	c #0EA41E",
"c 	c #0BA919",
"d 	c #15A61A",
"e 	c #16B11B",
"f 	c #0CBB02",
"g 	c #00B200",
"h 	c #0BBD04",
"i 	c #17BC0E",
"j 	c #1CAF1D",
"k 	c #7CD281",
"l 	c #FFFDFB",
"m 	c #FFF1FF",
"n 	c #FFF9FF",
"o 	c #FFFDFF",
"p 	c #FFF8FF",
"q 	c #FAFFFA",
"r 	c #F8FFF4",
"s 	c #FEFEFC",
"t 	c #FCFBFF",
"u 	c #FBFDFF",
"v 	c #FCFDFF",
"w 	c #EFFFEF",
"x 	c #9FFCA7",
"y 	c #2BB32B",
"z 	c #0EAD0E",
"A 	c #0CAA19",
"B 	c #0A9522",
"C 	c #4AC35E",
"D 	c #57CB5F",
"E 	c #95F098",
"F 	c #BEF7BB",
"G 	c #B8F8B6",
"H 	c #A5EFA7",
"I 	c #78D07B",
"J 	c #3BAF3F",
"K 	c #20A52A",
"L 	c #8BDE8F",
"M 	c #F7FFEA",
"N 	c #FFFAFF",
"O 	c #FCFFFF",
"P 	c #F6FFF0",
"Q 	c #FBFFF2",
"R 	c #FBFBFA",
"S 	c #F3FDFB",
"T 	c #ACEFAF",
"U 	c #46C348",
"V 	c #0F941E",
"W 	c #239716",
"X 	c #80D86E",
"Y 	c #B3F0B6",
"Z 	c #D9FFE6",
"` 	c #F6FFF3",
" .	c #F9FFEC",
"..	c #F3FFE6",
"+.	c #FBFFEC",
"@.	c #EDFFF4",
"#.	c #B7EFC8",
"$.	c #C1FFCC",
"%.	c #DBFFDE",
"&.	c #C3F9C4",
"*.	c #CFF7CE",
"=.	c #F8FFF7",
"-.	c #FDFFFE",
";.	c #FDFEFF",
">.	c #FFFBFE",
",.	c #FFFEFD",
"'.	c #FAFDFD",
").	c #FBFDFC",
"!.	c #F0FFEA",
"~.	c #8AE382",
"{.	c #13A70F",
"].	c #2BB22A",
"^.	c #8CD38E",
"/.	c #E9FFDE",
"(.	c #FEFEEE",
"_.	c #EDFFED",
":.	c #9CDF9F",
"<.	c #AEC59A",
"[.	c #FEEBEA",
"}.	c #FFFBF6",
"|.	c #FEFEF1",
"1.	c #ECFFFE",
"2.	c #4AAC5D",
"3.	c #109D15",
"4.	c #30B12C",
"5.	c #8FDF80",
"6.	c #E7FFDB",
"7.	c #F6FFFB",
"8.	c #F8FFFF",
"9.	c #F9FFFF",
"0.	c #FEFDF6",
"a.	c #EFFBE7",
"b.	c #FBF6F6",
"c.	c #FFF4FF",
"d.	c #F7FEFF",
"e.	c #89E28C",
"f.	c #1DA812",
"g.	c #6BDE61",
"h.	c #E4FFE1",
"i.	c #FBFDF5",
"j.	c #FAFDFC",
"k.	c #96E5A1",
"l.	c #15B01B",
"m.	c #68D45C",
"n.	c #F9FFF5",
"o.	c #FEFFFB",
"p.	c #84C38C",
"q.	c #2DAB29",
"r.	c #14B512",
"s.	c #0EAC07",
"t.	c #35A82B",
"u.	c #DAFFD7",
"v.	c #EEF8EF",
"w.	c #F9F6F9",
"x.	c #F5FFF1",
"y.	c #E9FFF1",
"z.	c #99D59B",
"A.	c #259123",
"B.	c #BDF9B1",
"C.	c #E8F1E5",
"D.	c #FFFBFF",
"E.	c #F7F5FA",
"F.	c #F3FFFB",
"G.	c #E7FEF4",
"H.	c #B3FEC7",
"I.	c #45BD57",
"J.	c #91F59D",
"K.	c #E8FFF1",
"L.	c #FCFEFB",
"M.	c #F9FFEF",
"N.	c #FFFFFA",
"O.	c #FFFFFC",
"P.	c #E1FCE0",
"Q.	c #C7F9C7",
"R.	c #68DE6A",
"S.	c #10A319",
"T.	c #29A228",
"U.	c #E9FFC7",
"V.	c #FFFDEA",
"W.	c #F3FCFA",
"X.	c #F1F6F9",
"Y.	c #FAFFFB",
"Z.	c #CEFFCC",
"`.	c #28901F",
" +	c #B0F29E",
".+	c #F8FFEA",
"++	c #CDDED6",
"@+	c #B9ECCF",
"#+	c #E3FFE5",
"$+	c #E6FFE2",
"%+	c #B5EABB",
"&+	c #99BE9F",
"*+	c #E6F2EC",
"=+	c #F5FFFD",
"-+	c #F4FFFC",
";+	c #FFFDFC",
">+	c #FFF8F6",
",+	c #EEFEEE",
"'+	c #E7FBF0",
")+	c #FCFCF9",
"!+	c #FFFBF8",
"~+	c #CDF6D0",
"{+	c #32A544",
"]+	c #53A54E",
"^+	c #F7FFE1",
"/+	c #FEF9FD",
"(+	c #F1FFDD",
"_+	c #5EAA51",
":+	c #7CD185",
"<+	c #D6FFE3",
"[+	c #87D888",
"}+	c #4FAF50",
"|+	c #259A2D",
"1+	c #AFEFAB",
"2+	c #7BC677",
"3+	c #63C660",
"4+	c #ACE29C",
"5+	c #FFFDF5",
"6+	c #ECFFED",
"7+	c #FDFBFD",
"8+	c #FEFCFE",
"9+	c #FBFFFF",
"0+	c #D9F1E9",
"a+	c #F8F9EC",
"b+	c #F9FEDD",
"c+	c #C5FFC7",
"d+	c #24A940",
"e+	c #9DEEAB",
"f+	c #F9FDEE",
"g+	c #CEF9C0",
"h+	c #378C2F",
"i+	c #DEFFE9",
"j+	c #ECFFFC",
"k+	c #64C16A",
"l+	c #A6F3A8",
"m+	c #40C53C",
"n+	c #D9FFD5",
"o+	c #349C38",
"p+	c #189619",
"q+	c #CEFFC5",
"r+	c #FFFEF7",
"s+	c #F6F1F0",
"t+	c #EEFAFA",
"u+	c #FEFFFA",
"v+	c #FFF9FD",
"w+	c #FFFFFF",
"x+	c #619760",
"y+	c #C3FCC4",
"z+	c #C5FBBB",
"A+	c #78DB7A",
"B+	c #A9F9B3",
"C+	c #369C45",
"D+	c #F7FFEE",
"E+	c #FDFCFA",
"F+	c #74DC76",
"G+	c #A4EAA7",
"H+	c #FBFFFB",
"I+	c #FDFFF9",
"J+	c #A3DB9E",
"K+	c #2AA527",
"L+	c #43C848",
"M+	c #62A662",
"N+	c #CFFDCA",
"O+	c #429941",
"P+	c #ECFFE6",
"Q+	c #FFFBF0",
"R+	c #FFFEF8",
"S+	c #EFFDFB",
"T+	c #ECFFFF",
"U+	c #E7FAEC",
"V+	c #BED3BF",
"W+	c #F6FFF5",
"X+	c #EBFFE1",
"Y+	c #6AC362",
"Z+	c #C9FDD2",
"`+	c #33B82E",
" @	c #50C24D",
".@	c #D7FFE3",
"+@	c #269732",
"@@	c #D3FFCF",
"#@	c #FEFFFF",
"$@	c #2B9A32",
"%@	c #D8FCE6",
"&@	c #F8FDF2",
"*@	c #FFFDF2",
"=@	c #EAFCDF",
"-@	c #7BF57E",
";@	c #7CDA87",
">@	c #88C988",
",@	c #C8FECC",
"'@	c #5FAD67",
")@	c #EFFFEE",
"!@	c #FFFAF8",
"~@	c #FFF6FF",
"{@	c #F3FEFF",
"]@	c #EEFFF9",
"^@	c #E5F7DE",
"/@	c #C2E8BB",
"(@	c #BAFFB8",
"_@	c #33A72A",
":@	c #37A032",
"<@	c #93EC9E",
"[@	c #2CBF21",
"}@	c #85E882",
"|@	c #BDE0CA",
"1@	c #4BBD5B",
"2@	c #ABE5AB",
"3@	c #F9FFF6",
"4@	c #469A40",
"5@	c #D9FFEB",
"6@	c #F8FFFA",
"7@	c #FEFDF1",
"8@	c #F0FCEC",
"9@	c #2D8B3A",
"0@	c #83B985",
"a@	c #E4FFDD",
"b@	c #D4FDD6",
"c@	c #9CD6A9",
"d@	c #EAFFEF",
"e@	c #ECFCE7",
"f@	c #FDFEFA",
"g@	c #E7FFF6",
"h@	c #A5DFAA",
"i@	c #D1F4CA",
"j@	c #4D9443",
"k@	c #43BB40",
"l@	c #A1FF9A",
"m@	c #65C962",
"n@	c #A3FEB1",
"o@	c #3BAA25",
"p@	c #409E42",
"q@	c #E3FAE7",
"r@	c #3DA650",
"s@	c #BFF5C2",
"t@	c #E8F7E2",
"u@	c #528C40",
"v@	c #E8FFF3",
"w@	c #EFFFFB",
"x@	c #F7FFFB",
"y@	c #F2FFFC",
"z@	c #DFFFEA",
"A@	c #F9FEF0",
"B@	c #F6FFED",
"C@	c #DFFFE3",
"D@	c #4B8D3D",
"E@	c #B5F2A8",
"F@	c #48A94F",
"G@	c #35AC3E",
"H@	c #C2F9C6",
"I@	c #56A059",
"J@	c #4CBE51",
"K@	c #7CE777",
"L@	c #347D31",
"M@	c #C6FAD0",
"N@	c #E2FFCA",
"O@	c #E6FFE8",
"P@	c #F3FFEF",
"Q@	c #379848",
"R@	c #D3FFD4",
"S@	c #E6FDE9",
"T@	c #438D35",
"U@	c #F5FFED",
"V@	c #EEFEF6",
"W@	c #ECFEFE",
"X@	c #FAFEFF",
"Y@	c #EDF0E6",
"Z@	c #FFFEFC",
"`@	c #EAFCED",
" #	c #E9FFEB",
".#	c #E6FFEE",
"+#	c #7AB874",
"@#	c #379628",
"##	c #A1F79C",
"$#	c #2FB836",
"%#	c #22961C",
"&#	c #BCF1B1",
"*#	c #3A823F",
"=#	c #BBFFC3",
"-#	c #99D597",
";#	c #D1FACF",
">#	c #EBFFF0",
",#	c #FDFFF6",
"'#	c #EAFEE6",
")#	c #348A3D",
"!#	c #F4FFF0",
"~#	c #EAFFFC",
"{#	c #329F32",
"]#	c #F4FADF",
"^#	c #F6FBF7",
"/#	c #E8FFF8",
"(#	c #FBF3FE",
"_#	c #FFFFEB",
":#	c #E8FFF0",
"<#	c #BDEBCB",
"[#	c #D3FFD5",
"}#	c #398C46",
"|#	c #BFFFCD",
"1#	c #3DA43B",
"2#	c #CEFFC3",
"3#	c #86D784",
"4#	c #47A044",
"5#	c #BCECB3",
"6#	c #C9E9BF",
"7#	c #F4FFF2",
"8#	c #F6FFF9",
"9#	c #F5FFF5",
"0#	c #B0EEAF",
"a#	c #B1E4BA",
"b#	c #F8FDF4",
"c#	c #F5FFFF",
"d#	c #68D064",
"e#	c #C0E5AD",
"f#	c #F7FFF3",
"g#	c #F1FFFE",
"h#	c #8FC27B",
"i#	c #5EBB5E",
"j#	c #78DA83",
"k#	c #E3FFDC",
"l#	c #589852",
"m#	c #D5FFCF",
"n#	c #54A24C",
"o#	c #C4FFC0",
"p#	c #6DC275",
"q#	c #C6F1C7",
"r#	c #E8FEF6",
"s#	c #F9FCFF",
"t#	c #F5FDFA",
"u#	c #FEF7FF",
"v#	c #E9FFDC",
"w#	c #39923A",
"x#	c #DCFCF0",
"y#	c #FEF8FF",
"z#	c #DBFBC6",
"A#	c #379333",
"B#	c #DBFFE7",
"C#	c #F0FDFC",
"D#	c #BEF8C8",
"E#	c #75E279",
"F#	c #4FCA3A",
"G#	c #7BE978",
"H#	c #A5F79D",
"I#	c #2B942B",
"J#	c #C2FFCA",
"K#	c #C2E8C8",
"L#	c #ECFFEE",
"M#	c #FEF0FF",
"N#	c #FFFFFB",
"O#	c #F9F7FC",
"P#	c #FBFBF5",
"Q#	c #F2F9FF",
"R#	c #F9FFF0",
"S#	c #57CF59",
"T#	c #96CE92",
"U#	c #E7FFFE",
"V#	c #F6FEFC",
"W#	c #FBFFFD",
"X#	c #E7FFE2",
"Y#	c #98D99B",
"Z#	c #659B6E",
"`#	c #EBFFF3",
" $	c #8AE592",
".$	c #AAF5B1",
"+$	c #4AB941",
"@$	c #B6F7AF",
"#$	c #5D9C5D",
"$$	c #CAF3CE",
"%$	c #E7FEEB",
"&$	c #FAFEFB",
"*$	c #FAFCFF",
"=$	c #FBFEFF",
"-$	c #FFF8FC",
";$	c #F3FFE9",
">$	c #E0FFE8",
",$	c #59B25F",
"'$	c #53BC5E",
")$	c #F3FFE8",
"!$	c #FDFFF8",
"~$	c #F7FBF3",
"{$	c #F9FEF3",
"]$	c #FBFCFB",
"^$	c #73B674",
"/$	c #54C050",
"($	c #B3FFA8",
"_$	c #419935",
":$	c #B0D9A9",
"<$	c #F3FFF4",
"[$	c #F8FFF9",
"}$	c #EFF8EC",
"|$	c #FDF7FD",
"1$	c #F7FFFC",
"2$	c #FAFFFC",
"3$	c #FDFEF7",
"4$	c #F0FFED",
"5$	c #C4FFCE",
"6$	c #349C3F",
"7$	c #73BF72",
"8$	c #F1FFE7",
"9$	c #FEFBFA",
"0$	c #FFFCFD",
"a$	c #F9FCFD",
"b$	c #FBF5FF",
"c$	c #F8F7F9",
"d$	c #F1FFED",
"e$	c #69C35F",
"f$	c #2CAA1E",
"g$	c #9FFA97",
"h$	c #E4FFE3",
"i$	c #F6F8FB",
"j$	c #FDFEFD",
"k$	c #FFFAFB",
"l$	c #FFF4F6",
"m$	c #F8FFF5",
"n$	c #FAFFF3",
"o$	c #FFFFF3",
"p$	c #DCF8D2",
"q$	c #88D38C",
"r$	c #198527",
"s$	c #92DF98",
"t$	c #F5FFE5",
"u$	c #FFF4F9",
"v$	c #FAFAFF",
"w$	c #FEFBFF",
"x$	c #FEFEFF",
"y$	c #F6F6F6",
"z$	c #F3FFF3",
"A$	c #B5FFB5",
"B$	c #2BA02E",
"C$	c #2A9B32",
"D$	c #8CD793",
"E$	c #D3F8DA",
"F$	c #DCFBDF",
"G$	c #DDFCDD",
"H$	c #DDFDDC",
"I$	c #D2FDD3",
"J$	c #D1FCD6",
"K$	c #CFF9D4",
"L$	c #BFF3C1",
"M$	c #71A76F",
"N$	c #409349",
"O$	c #51A85A",
"P$	c #EAFFE0",
"Q$	c #EDFFDE",
"R$	c #F4FBF4",
"S$	c #FBF9FF",
"T$	c #FFFFFD",
"U$	c #F6FFFC",
"V$	c #F4F1F7",
"W$	c #FDFBFF",
"X$	c #F9FEFD",
"Y$	c #FAFFF9",
"Z$	c #EFFEE7",
"`$	c #BBF9BB",
" %	c #37BE44",
".%	c #109B1C",
"+%	c #16A221",
"@%	c #1BAE27",
"#%	c #15AC20",
"$%	c #11AA1C",
"%%	c #14AC1F",
"&%	c #14A21F",
"*%	c #1FA32A",
"=%	c #7AF683",
"-%	c #CEFADA",
";%	c #F5FFF4",
">%	c #FDFFF1",
",%	c #F9FFF4",
"'%	c #E9FFFD",
")%	c #EBFFFF",
"!%	c #F5FEEB",
"~%	c #FFFEF5",
"{%	c #FFF9F1",
"]%	c #FFF7F6",
"^%	c #FFFFF1",
"/%	c #E0FFD3",
"(%	c #C2F1B7",
"_%	c #ABE1A1",
":%	c #A4DE9B",
"<%	c #A7E09E",
"[%	c #B1E2A8",
"}%	c #D5F8CA",
"|%	c #F7FFEC",
"1%	c #FCFFF3",
"2%	c #FFFAFE",
"3%	c #F7FFFA",
"4%	c #F2FFFB",
"5%	c #F1FFF9",
"  . + @ # $ % & * = - ; > , ' ) ! ~ { ] ^ / ( _ : < [ ",
"} | 1 2 3 4 5 6 7 8 9 0 a b c d e f g h i j k l m n o ",
"p q r s t u v w x y z A B C D E F G H I J K L M p n = ",
"N O P Q R S T U V W X Y Z `  ...+.@.#.$.%.&.*.=.-.;.>.",
",.O '.).!.~.{.].^./.(._.:.<.[.}.|.1.2.3.4.5.6.7.8.9.0.",
"a.b.c.d.e.f.g.h.i.+ j.k.l.m.n.n o.8.p.q.r.s.t.u.v.w.x.",
"y.2 >.z.A.B.C.D.E.F.G.H.I.J.K.L.M.N.O.P.Q.R.S.T.U.V.W.",
"X.Y.Z.`. +.+++@+#+$+%+&+*+=+-+o.;+>+,+'+)+!+~+{+]+^+/+",
"2 (+_+:+<+[+}+|+1+2+3+4+5+o 6+7+p 9.8+9+0+a+b+c+d+e+f+",
")+g+h+i+j+k+l+m+n+o+p+q+r+s+t+n u+_ v+w+x+y+z+A+B+C+D+",
"E+F+G+H+I+J+K+L+M+N+O+P+Q+R+S+T+U+V+W+X+Y+Z+`+ @.@+@@@",
"#@$@%@&@*@=@-@;@>@,@'@)@!@~@{@]@^@/@(@_@:@<@[@}@|@1@2@",
"3@4@5@6@7@8@9@0@a@b@c@d@e@f@g@h@i@j@k@l@m@n@o@p@q@r@s@",
"t@u@v@w@x@y@z@A@7 B@-+C@D@E@F@G@H@I@J@K@L@M@N@O@P@Q@R@",
"S@T@U@V@W@X@Y@Z@`@ #.#+#@###$#%#&#*#=#-#;#>#; ,#'#)#!#",
"~#{#]#^#/#(#_#:#<#[#}#|#1#2#3#4#5#6#7#8#9#3@3 >+0#a#b#",
"c#d#e#f#g#| h#i#j#k#l#m#n#o#p#q#!#r#s#D.w+t#u#v#w#x#,.",
"y#z#A#B#C#D#E#F#G#H#I#J#K#L#c#M#N#O#y#P#r Q#R#S#T#U#V#",
"W#X#Y#Z#`# $.$+$@$#$$$%$&$w+*$o =$w+~@-$;$>$,$'$)$!$~$",
"{$]$q ^$/$($_$:$<$[$}$!+D.|$).1$2$3$% 4$5$6$7$8$9$0$a$",
"o b$c$d$e$f$g$h$i$j$l k$l$;+N#m$n$o$p$q$r$s$t$u$2 v$5 ",
"w$x$w$y$z$A$B$C$D$E$F$G$H$I$J$K$L$M$N$O$P$Q$R$5 D.S$T$",
"U$V$N W$X$Y$Z$`$ %.%+%@%#%$%%%&%*%=%-%;%>%,%'%)%x$l !%",
"Q ,#~%{%]%N O 2$^%/%(%_%:%<%[%}%|%1%2%2 D.T$3%4%5%3@o$"};
